<?xml version="1.0" encoding="UTF-8"?>
<svg version="1.1" xmlns="http://www.w3.org/2000/svg" width="179" height="179">
<path d="M0 0 C1.19367188 0.42410156 2.38734375 0.84820313 3.6171875 1.28515625 C26.48382615 10.26669156 43.09808828 27.63886628 53.53125 49.46484375 C61.95538108 69.74101031 63.46457977 94.21079653 56 115 C55.57589844 116.19367188 55.15179688 117.38734375 54.71484375 118.6171875 C45.73330844 141.48382615 28.36113372 158.09808828 6.53515625 168.53125 C-13.74101031 176.95538108 -38.21079653 178.46457977 -59 171 C-60.19367187 170.57589844 -61.38734375 170.15179688 -62.6171875 169.71484375 C-85.48382615 160.73330844 -102.09808828 143.36113372 -112.53125 121.53515625 C-120.95538108 101.25898969 -122.46457977 76.78920347 -115 56 C-114.57589844 54.80632813 -114.15179688 53.61265625 -113.71484375 52.3828125 C-104.73330844 29.51617385 -87.36113372 12.90191172 -65.53515625 2.46875 C-45.25898969 -5.95538108 -20.78920347 -7.46457977 0 0 Z " fill="#FE005C" transform="translate(119,4)"/>
<path d="M0 0 C56.74683544 0 56.74683544 0 69 8 C69.886875 8.556875 70.77375 9.11375 71.6875 9.6875 C77.7383838 15.7383838 82.18690867 24.01755852 82.38061523 32.62109375 C82.35207298 43.12464313 80.62880302 51.27015335 73.18359375 59.1796875 C62.24205354 68.30089991 50.1044253 69.30334107 36.5 69.125 C32.045 69.08375 27.59 69.0425 23 69 C23 81.21 23 93.42 23 106 C15.41 106 7.82 106 0 106 C0 71.02 0 36.04 0 0 Z " fill="#BCFCFA" transform="translate(59,38)"/>
<path d="M0 0 C5.9709375 -0.1546875 5.9709375 -0.1546875 12.0625 -0.3125 C13.30394775 -0.35802002 14.54539551 -0.40354004 15.82446289 -0.45043945 C22.94243584 -0.53953626 26.77932654 0.03310928 32 5 C35.54211722 10.7130923 35.71944049 16.38514436 35 23 C33.28158838 28.25070216 30.76584749 30.31921079 26 33 C22.94080612 34.01973129 20.87581975 34.11533602 17.67578125 34.09765625 C16.28613159 34.09390991 16.28613159 34.09390991 14.8684082 34.09008789 C13.6949585 34.08098389 12.52150879 34.07187988 11.3125 34.0625 C7.579375 34.041875 3.84625 34.02125 0 34 C0 22.78 0 11.56 0 0 Z " fill="#FC0055" transform="translate(82,56)"/>
<path d="M0 0 C65.74204312 0 65.74204312 0 78.4375 11.6875 C86.01602183 19.89756532 88.39763427 29.92507856 88.27734375 40.8046875 C87.55250069 49.15569633 84.00756649 57.11681377 78 63 C71.55154421 68.0470591 64.97618484 71.2305392 57 73 C56.24162842 73.17345947 55.48325684 73.34691895 54.7019043 73.52563477 C51.89949614 74.01764516 49.32382387 74.11354092 46.48046875 74.09765625 C45.55903076 74.09515869 44.63759277 74.09266113 43.68823242 74.09008789 C42.53299072 74.08098389 41.37774902 74.07187988 40.1875 74.0625 C34.6496875 74.0315625 34.6496875 74.0315625 29 74 C29 85.88 29 97.76 29 110 C19.43 110 9.86 110 0 110 C0 73.7 0 37.4 0 0 Z M3 2 C3 36.98 3 71.96 3 108 C10.59 108 18.18 108 26 108 C26 95.79 26 83.58 26 71 C39.1875 71.25 39.1875 71.25 43.25854492 71.36035156 C55.2264386 71.46860299 66.78577933 69.07873085 76 61 C83.22529225 53.34595414 85.54522228 45.50203252 85.56689453 35.15112305 C85.22712256 26.10706852 80.92047102 18.68262121 75 12 C53.63115721 -3.77224111 29.68008035 2 3 2 Z " fill="#2C292C" transform="translate(56,36)"/>
<path d="M0 0 C5.9709375 -0.1546875 5.9709375 -0.1546875 12.0625 -0.3125 C13.30394775 -0.35802002 14.54539551 -0.40354004 15.82446289 -0.45043945 C22.94243584 -0.53953626 26.77932654 0.03310928 32 5 C35.54211722 10.7130923 35.71944049 16.38514436 35 23 C33.28158838 28.25070216 30.76584749 30.31921079 26 33 C22.94080612 34.01973129 20.87581975 34.11533602 17.67578125 34.09765625 C16.28613159 34.09390991 16.28613159 34.09390991 14.8684082 34.09008789 C13.6949585 34.08098389 12.52150879 34.07187988 11.3125 34.0625 C7.579375 34.041875 3.84625 34.02125 0 34 C0 22.78 0 11.56 0 0 Z M3 3 C3 12.24 3 21.48 3 31 C7.764375 31.0928125 7.764375 31.0928125 12.625 31.1875 C13.6145166 31.21481201 14.6040332 31.24212402 15.62353516 31.27026367 C20.84609085 31.3193538 24.50611935 30.97017424 29 28 C32.69511494 23.91592559 33.6486154 20.6014287 33.38671875 15.24609375 C32.60034404 10.67876587 30.5897648 7.35950125 27.03125 4.31640625 C22.4582236 2.33043989 18.10859189 2.68459613 13.1875 2.8125 C9.825625 2.874375 6.46375 2.93625 3 3 Z " fill="#242123" transform="translate(82,56)"/>
<path d="M0 0 C54 0 54 0 58 1 C58 1.66 58 2.32 58 3 C39.19 2.67 20.38 2.34 1 2 C1 37.64 1 73.28 1 110 C0.67 110 0.34 110 0 110 C0 73.7 0 37.4 0 0 Z " fill="#2D1C21" transform="translate(56,36)"/>
<path d="M0 0 C0.66 0.66 1.32 1.32 2 2 C4.13252093 2.27714896 4.13252093 2.27714896 6.5703125 2.1953125 C7.46621094 2.18886719 8.36210938 2.18242188 9.28515625 2.17578125 C10.22230469 2.15902344 11.15945312 2.14226563 12.125 2.125 C13.06988281 2.11597656 14.01476562 2.10695312 14.98828125 2.09765625 C17.32577292 2.07404522 19.66276123 2.04111516 22 2 C22 2.33 22 2.66 22 3 C15.73 3 9.46 3 3 3 C3 12.24 3 21.48 3 31 C10.26 30.67 17.52 30.34 25 30 C24.34 31.32 23.68 32.64 23 34 C15.41 34 7.82 34 0 34 C0 22.78 0 11.56 0 0 Z " fill="#44333A" transform="translate(82,56)"/>
<path d="M0 0 C9.24 0 18.48 0 28 0 C28 0.66 28 1.32 28 2 C23.99700128 4.00149936 18.90083269 3.18485209 14.5 3.1875 C12.89318359 3.20586914 12.89318359 3.20586914 11.25390625 3.22460938 C10.23167969 3.22654297 9.20945312 3.22847656 8.15625 3.23046875 C6.74569336 3.23663208 6.74569336 3.23663208 5.30664062 3.24291992 C3 3 3 3 1 1 C1 12.88 1 24.76 1 37 C0.67 37 0.34 37 0 37 C0 24.79 0 12.58 0 0 Z " fill="#3D2E37" transform="translate(82,107)"/>
<path d="M0 0 C4.43843439 1.39493652 6.9434964 3.51898201 10 7 C10.33 7.99 10.66 8.98 11 10 C8.23423473 9.61851514 7.24509481 9.3165808 5.5 7.0625 C5.005 6.381875 4.51 5.70125 4 5 C1.91665365 3.7483533 1.91665365 3.7483533 0 3 C0 2.01 0 1.02 0 0 Z " fill="#343134" transform="translate(105,56)"/>
<path d="M0 0 C0.66 0 1.32 0 2 0 C3.09506492 3.28519475 3.09960608 5.73663415 3.0625 9.1875 C3.05347656 10.27417969 3.04445312 11.36085938 3.03515625 12.48046875 C3.02355469 13.31191406 3.01195312 14.14335938 3 15 C1.51171875 13.88671875 1.51171875 13.88671875 0 12 C-0.29296875 9.08203125 -0.29296875 9.08203125 -0.1875 5.8125 C-0.16042969 4.72582031 -0.13335937 3.63914062 -0.10546875 2.51953125 C-0.07066406 1.68808594 -0.03585938 0.85664062 0 0 Z " fill="#3E212F" transform="translate(141,65)"/>
<path d="M0 0 C0.66 0 1.32 0 2 0 C3.26237731 2.52475462 3.09856404 4.31200466 3.0625 7.125 C3.05347656 8.03507812 3.04445313 8.94515625 3.03515625 9.8828125 C3.02355469 10.58148438 3.01195313 11.28015625 3 12 C2.34 12 1.68 12 1 12 C0.67 8.04 0.34 4.08 0 0 Z " fill="#201F20" transform="translate(114,66)"/>
<path d="M0 0 C0.33 0 0.66 0 1 0 C1 3.96 1 7.92 1 12 C0.01 12.33 -0.98 12.66 -2 13 C-1.34 8.71 -0.68 4.42 0 0 Z " fill="#232323" transform="translate(142,71)"/>
</svg>
